SOURCE: The.Deep.2012.720p.WEB-DL.X264-WEBiOS 
 
http://www.imdb.com/title/tt1764275/


- SAMPLE: Yes

- LANGUAGE: Icelandic

- SUBTITLE: English hard-coded


DIRECTOR: Baltasar Kormákur


CAST:
---------
Ólafur Darri Ólafsson, Jóhann G. Jóhannsson, Þorbjörg Helga Þorgilsdóttir, Theodór Júlíusson, María Sigurðardóttir, Björn Thors


PLOT:
-------
Based on actual events, a fisherman tries to survive in the freezing ocean after his boat capsizes off the south coast of Iceland. Based on the astonishing true story story of survival and human endurance, The Deep fashions a modern-day everyman myth about the unlikely sole survivor of a tragic local shipwreck, whose superhuman will to survive made him both an inexplicable scientific phenomenon and a genuine national hero.


General
----------
Format : AVI
Format/Info : Audio Video Interleave
File size : 906 MiB
Duration : 1h 32mn
Overall bit rate : 1367 Kbps
Writing application : VirtualDubMod 1.5.10.3
Writing library : VirtualDubMod build 2550

Video
-------
Format : MPEG-4 Visual
Format profile : Advanced Simple@L5
Format settings, BVOP : 2
Format settings, QPel : No
Format settings, GMC : No warppoints
Format settings, Matrix : Default (H.263)
Codec ID : XVID
Codec ID/Hint : XviD
Duration : 1h 32mn
Bit rate : 1229 Kbps
Width : 720 pixels
Height : 306 pixels
Display aspect ratio : 2.35:1
Frame rate : 23.976 fps
Color space : YUV
Chroma subsampling : 4:2:0
Bit depth : 8 bits
Scan type : Progressive
Compression mode : Lossy
Bits/(Pixel*Frame) : 0.233
Stream size : 815 MiB (90%)
Writing library : XviD 64

Audio
--------
Format : MPEG Audio
Format version : Version 1
Format profile : Layer 3
Mode : Joint stereo
Mode extension : MS Stereo
Codec ID : 55
Codec ID/Hint : MP3
Duration : 1h 32mn
Bit rate mode : Constant
Bit rate : 128 Kbps
Channel(s) : 2 channels
Sampling rate : 48.0 KHz
Compression mode : Lossy
Stream size : 84.9 MiB (9%)
Alignment : Aligned on interleaves
Interleave, duration : 42 ms (1.00 video frame)
Interleave, preload duration : 504 ms